# xmcd CD database file
# Copyright (C) 1996 Ti Kan
#
# Track frame offsets:
# 	182
# 	13357
# 	29945
# 	44825
# 	63255
# 	77230
# 	89467
# 	105542
# 	125672
# 	141590
# 	154897
#
# Disc length: 2296 seconds
#
# Revision: 1
# Processed by: cddbd v1.4b41PL1 Copyright (c) Steve Scherf et al.
# Submitted via: DiscPlay 3.4
#
DISCID=a808f60b
DTITLE=Nitty Gritty Dirt Band - Acoustic
DYEAR=1900
DGENRE=
TTITLE0=How Long?
TTITLE1=Cupid's Got A Gun
TTITLE2=Sarah In The Summer
TTITLE3=Let It Roll
TTITLE4=Hello, I Am Your Heart
TTITLE5=Love Will Find A Way
TTITLE6=Tryin' Times
TTITLE7=This Train Keeps Rolling Along
TTITLE8=Badlands
TTITLE9=One Sure Honest Line
TTITLE10=The Broken Road
EXTD=
EXTT0=
EXTT1=
EXTT2=
EXTT3=
EXTT4=
EXTT5=
EXTT6=
EXTT7=
EXTT8=
EXTT9=
EXTT10=
PLAYORDER=
